<svg xmlns="http://www.w3.org/2000/svg" xmlns:xlink="http://www.w3.org/1999/xlink" version="1.1" viewBox="30 10 40 20" width="100" height="100">
	<circle cx="50" cy="20" r="20" fill="#b6a3f8"/>
	<g clip-rule="evenodd" fill-rule="evenodd">
		<path d="m37.85 23.1c1.4-0.3 2.816-0.35 4.25-0.15l0.65-15.5-2.55-2.75 2-2.65 19.8 1.9 1.9 3.2-0.3 3.95v24.7l0.65 0.5c0 0.3-1.066 0.334-3.2 0.101-2.7-0.267-4.683-0.867-5.95-1.801-1.434-1.033-2.267-2.683-2.5-4.949-0.333-3.067 1.2-4.734 4.6-5 1.7-0.133 3.433 0.033 5.2 0.5l-1.25-14.751-16.65-2.75 2.15 26.2c0.2 0.134 0.184 0.233-0.05 0.301-0.5 0.166-1.817 0.149-3.95-0.051-2.867-0.267-4.883-0.767-6.05-1.5-1.5-0.933-2.35-2.5-2.55-4.7-0.234-2.567 1.033-4.167 3.8-4.8z" fill="#4F4F4F"/>
		<path d="m41.85 25.3l-1.8-20.75 23.65 2.6 0.2 2.25h0.05l2.05 26.4c-0.333 0.601-0.883 1.184-1.65 1.75-1.5 1.101-3.317 1.55-5.45 1.351-2.433-0.267-4.133-1.117-5.1-2.551-0.833-1.233-1.233-3.133-1.2-5.699 0.033-1.967 1.316-3.067 3.85-3.3 1.267-0.1 2.533-0.017 3.8 0.25l-1.25-14.701-13.45-2.1 2.05 22.7c-0.333 0.6-0.867 1.184-1.6 1.75-1.533 1.1-3.367 1.55-5.5 1.35-2.4-0.267-4.083-1.116-5.05-2.55-0.833-1.233-1.233-3.133-1.2-5.7 0.033-1.966 1.3-3.066 3.8-3.3 1.266-0.1 2.533-0.017 3.8 0.25z" fill="#2B2B2B"/>
			<linearGradient id="g" x1="-48.263" x2="-1.7377" y1="50.125" y2="50.125" gradientTransform="matrix(2.1494e-5 -1 1 -.001 .00019193 6.2112e-5)" gradientUnits="userSpaceOnUse">
			<stop offset="0"/>
			<stop stop-opacity=".7961" offset=".0902"/>
			<stop stop-opacity="0" offset="1"/>
		</linearGradient>
		<path d="m41.85 25.3l-1.8-20.75 23.65 2.6 0.2 2.25h0.05l2.05 26.4c-0.333 0.601-0.883 1.184-1.65 1.75-1.5 1.101-3.317 1.55-5.45 1.351-2.433-0.267-4.133-1.117-5.1-2.551-0.833-1.233-1.233-3.133-1.2-5.699 0.033-1.967 1.316-3.067 3.85-3.3 1.267-0.1 2.533-0.017 3.8 0.25l-1.25-14.701-13.45-2.1 2.05 22.7c-0.333 0.6-0.867 1.184-1.6 1.75-1.533 1.1-3.367 1.55-5.5 1.35-2.4-0.267-4.083-1.116-5.05-2.55-0.833-1.233-1.233-3.133-1.2-5.7 0.033-1.966 1.3-3.066 3.8-3.3 1.266-0.1 2.533-0.017 3.8 0.25z" fill="url(#g)"/>
		<path d="m52.55 31.825c-0.087-0.493-0.104-1.034-0.05-1.625 0.133-1.4 0.733-2.333 1.8-2.8 1.1-0.433 2.417-0.533 3.95-0.3 0.767 0.133 1.434 0.3 2 0.5-1.9 0.1-3.5 0.25-4.8 0.45-1.567 0.267-2.5 1.033-2.8 2.3-0.132 0.528-0.166 1.02-0.1 1.475z" fill="#7D7D7D"/>
		<path d="m37.8 26.5c-0.8 0.867-1.417 1.1-1.85 0.7-0.3-0.233-0.25-0.65 0.15-1.25 0.2-0.3 0.433-0.567 0.7-0.8 1.367 0.1 1.7 0.55 1 1.35z" fill="#B5B5B5"/>
		<path d="m56.15 27.05c0.967-0.066 1.217 0.25 0.75 0.95-0.466 0.667-1.216 0.934-2.25 0.8-1.033-0.1-1.3-0.399-0.8-0.9 0.466-0.5 1.233-0.783 2.3-0.85z" fill="#B5B5B5"/>
		<polygon points="40.05 4.55 63.7 7.15 63.7 8.15 39.65 5.2" fill="#7D7D7D"/>
		<path d="m44.3 5.45l5.75 0.5c2 0.167 4.083 0.667 6.25 1.5-1.833-0.333-3.917-0.583-6.25-0.75-1.466-0.1-2.866-0.333-4.2-0.7l-1.55-0.55z" fill="#828282"/>
		<path d="m41.85 25.3c-2.5-0.2-4.284 0.083-5.35 0.85-0.633 0.467-1.2 1.25-1.7 2.35-0.233 0.533-0.4 1.017-0.5 1.45 0.034-0.667 0.15-1.384 0.35-2.15 0.367-1.5 0.983-2.433 1.85-2.8 1.066-0.5 2.283-0.6 3.65-0.3 0.666 0.167 1.233 0.367 1.7 0.6z" fill="#7D7D7D"/>
	</g>
</svg>